<svg xmlns="http://www.w3.org/2000/svg" version="1.1" xmlns:xlink="http://www.w3.org/1999/xlink" width="512" height="512" x="0" y="0" viewBox="0 0 4334.92 4334.92" style="enable-background:new 0 0 512 512" xml:space="preserve" fill-rule="evenodd"><g><g fill-rule="nonzero"><path d="M2198.55 3556.81c4.28 12.01 7.63 24.76 9.93 38.1 2.24 12.97 3.41 26.03 3.41 39.02 0 63.41-25.71 120.83-67.25 162.37s-98.96 67.25-162.37 67.25c-63.4 0-120.82-25.71-162.36-67.25v-.25c-41.54-41.56-67.25-98.89-67.25-162.12 0-12.97 1.18-26.04 3.4-39.03 2.3-13.35 5.65-26.1 9.93-38.09l15.07-42.17h402.44zm-143.71 149.69c16.86-16.86 27.89-39.59 29.76-64.86h-204.66c1.87 25.35 12.85 48.12 29.65 64.98l.12-.12c18.56 18.56 44.23 30.05 72.56 30.05 28.34 0 54.01-11.49 72.57-30.05zM1738.94 2655.42h486.67c26.99 0 51.5 10.99 69.22 28.71s28.71 42.23 28.71 69.22v276.25l-83.1-27.08c-41.12-13.39-83.42-23.65-126.45-30.4-41.71-6.54-85.73-9.97-131.72-9.97s-90 3.43-131.71 9.97c-43.04 6.76-85.34 17.01-126.46 30.4l-83.1 27.08v-276.25c0-26.99 10.99-51.5 28.71-69.22h.25c17.74-17.71 42.16-28.71 68.98-28.71zm457.6 127H1768v76.74c20.68-4.66 41.76-8.69 63.22-12.06 49.99-7.84 100.52-11.95 151.05-11.95s101.07 4.11 151.06 11.95c21.46 3.37 42.54 7.39 63.21 12.05z" fill="#ffffff" opacity="1" data-original="#000000"></path><path d="M1918.77 2718.92V1101.31h127v1617.61zM1982.27 3641.63h-850.51v-63.5c0-206.82 96.53-393.6 252.59-528.33 153.6-132.62 365.07-214.65 597.92-214.65 232.86 0 444.33 82.03 597.93 214.65 156.06 134.73 252.59 321.51 252.59 528.33v63.5zm-719.69-127h1439.4c-17.27-143.18-92.24-272.06-204.62-369.09-131.24-113.31-313.31-183.39-515.09-183.39-201.77 0-383.85 70.09-515.08 183.39-112.38 97.03-187.35 225.91-204.61 369.09z" fill="#ffffff" opacity="1" data-original="#000000"></path><path d="M2198.55 3556.81c4.28 12.01 7.63 24.76 9.93 38.1 2.24 12.97 3.41 26.03 3.41 39.02 0 63.11-25.7 120.44-67.26 162.11l-.25.25c-41.67 41.56-99 67.26-162.11 67.26-63.17 0-120.55-25.75-162.23-67.39l-.13.13c-41.54-41.54-67.25-98.96-67.25-162.36 0-12.97 1.18-26.04 3.4-39.03 2.3-13.35 5.65-26.1 9.93-38.09l15.07-42.17h402.44zm-143.47 149.68c16.74-16.73 27.68-39.46 29.53-64.85h-204.66c1.87 25.26 12.9 47.99 29.76 64.85v.25c18.4 18.41 44.06 29.81 72.56 29.81 28.49 0 54.15-11.39 72.56-29.81zM1738.94 2655.42h486.67c26.99 0 51.5 10.99 69.22 28.71s28.71 42.23 28.71 69.22v276.25l-83.1-27.08c-41.12-13.39-83.42-23.65-126.45-30.4-41.71-6.54-85.73-9.97-131.72-9.97s-90 3.43-131.71 9.97c-43.04 6.76-85.34 17.01-126.46 30.4l-83.1 27.08v-276.25c0-26.99 10.99-51.5 28.71-69.22h.25c17.74-17.71 42.16-28.71 68.98-28.71zm457.6 127H1768v76.74c20.68-4.66 41.76-8.69 63.22-12.06 49.99-7.84 100.52-11.95 151.05-11.95s101.07 4.11 151.06 11.95c21.46 3.37 42.54 7.39 63.21 12.05z" fill="#ffffff" opacity="1" data-original="#000000"></path><path d="M2045.77 2718.92c0 35.07-28.43 63.5-63.5 63.5s-63.5-28.43-63.5-63.5V534.87c0-35.07 28.43-63.5 63.5-63.5s63.5 28.43 63.5 63.5zM1982.27 3641.63h-850.51v-63.5c0-206.82 96.53-393.6 252.59-528.33 153.6-132.62 365.07-214.65 597.92-214.65 232.86 0 444.33 82.03 597.93 214.65 156.06 134.73 252.59 321.51 252.59 528.33v63.5zm-719.69-127h1439.4c-17.27-143.18-92.24-272.06-204.62-369.09-131.24-113.31-313.31-183.39-515.09-183.39-201.77 0-383.85 70.09-515.08 183.39-112.38 97.03-187.35 225.91-204.61 369.09zM1066.79 2279.61c4.28 12 7.63 24.75 9.93 38.1 2.24 12.97 3.41 26.03 3.41 39.02 0 63.1-25.7 120.44-67.26 162.11l-.25.25c-41.67 41.56-99.01 67.26-162.11 67.26-63.18 0-120.55-25.75-162.23-67.39l-.13.13c-41.54-41.54-67.25-98.96-67.25-162.36 0-12.99 1.17-26.05 3.41-39.02 2.3-13.35 5.65-26.1 9.93-38.1l15.05-42.17h402.46zm-143.47 149.68c16.73-16.72 27.67-39.45 29.53-64.85H748.19c1.87 25.26 12.9 47.99 29.76 64.85v.25c18.41 18.42 44.07 29.81 72.56 29.81 28.5 0 54.16-11.4 72.56-29.81zM607.18 1378.22h486.67c26.99 0 51.5 10.99 69.22 28.71s28.71 42.23 28.71 69.22v276.25l-83.1-27.08c-41.12-13.39-83.42-23.65-126.45-30.4-41.71-6.54-85.73-9.97-131.72-9.97s-90 3.43-131.71 9.97c-43.04 6.76-85.34 17.01-126.46 30.4l-83.1 27.08v-276.25c0-26.99 10.99-51.5 28.71-69.22h.25c17.74-17.71 42.16-28.71 68.98-28.71zm457.6 127H636.24v76.74c20.68-4.66 41.76-8.69 63.22-12.06 49.99-7.84 100.52-11.95 151.05-11.95s101.07 4.11 151.06 11.95c21.46 3.37 42.54 7.39 63.21 12.05z" fill="#ffffff" opacity="1" data-original="#000000"></path><path d="M914.01 1441.72c0 35.07-28.43 63.5-63.5 63.5s-63.5-28.43-63.5-63.5V555.4c0-35.07 28.43-63.5 63.5-63.5s63.5 28.43 63.5 63.5zM850.51 2364.43H0v-63.5c0-206.83 96.54-393.6 252.59-528.33 153.6-132.62 365.07-214.65 597.92-214.65 232.86 0 444.33 82.03 597.93 214.65 156.05 134.73 252.59 321.5 252.59 528.33v63.5zm-719.7-127h1439.4c-17.26-143.18-92.23-272.06-204.61-369.09-131.24-113.31-313.31-183.39-515.09-183.39-201.77 0-383.85 70.09-515.08 183.39-112.38 97.03-187.35 225.91-204.62 369.09zM3700.68 2889.61c4.28 12 7.63 24.75 9.93 38.1 2.24 12.97 3.41 26.04 3.41 39.02 0 63.22-25.71 120.56-67.25 162.12v.25c-41.54 41.54-98.96 67.25-162.36 67.25-63.22 0-120.56-25.71-162.12-67.25l-.25-.25c-41.54-41.56-67.25-98.9-67.25-162.12 0-12.98 1.17-26.05 3.41-39.02 2.3-13.35 5.65-26.1 9.93-38.1l15.04-42.17h402.46zm-143.59 149.81c16.8-16.85 27.78-39.62 29.65-64.98h-204.67c1.87 25.36 12.85 48.13 29.65 64.98 18.55 18.48 44.24 29.93 72.69 29.93 28.33 0 54-11.49 72.56-30.05zM3241.07 1988.22h486.67c27.01 0 51.51 10.99 69.23 28.71s28.71 42.22 28.71 69.23v276.24l-83.1-27.08c-41.11-13.39-83.41-23.64-126.44-30.39-41.71-6.54-85.73-9.97-131.73-9.97-46.01 0-90.03 3.43-131.74 9.97-43.03 6.75-85.33 17-126.43 30.39l-83.1 27.08v-276.24c0-26.82 11-51.24 28.71-68.98v-.25c17.72-17.72 42.23-28.71 69.22-28.71zm457.61 127h-428.54v76.73c20.67-4.65 41.74-8.68 63.19-12.04 50-7.84 100.54-11.95 151.08-11.95 50.53 0 101.07 4.11 151.07 11.95 21.45 3.36 42.53 7.39 63.2 12.05z" fill="#ffffff" opacity="1" data-original="#000000"></path><path d="M3420.91 2051.72V528.18h127v1523.54zM3484.41 2974.43h-850.52v-63.5c0-206.83 96.54-393.6 252.59-528.33 153.6-132.6 365.07-214.64 597.93-214.64s444.32 82.03 597.92 214.64c156.05 134.73 252.59 321.5 252.59 528.33v63.5zm-719.71-127h1439.41c-17.27-143.18-92.24-272.06-204.62-369.09-131.23-113.3-313.3-183.38-515.08-183.38s-383.86 70.09-515.09 183.38c-112.38 97.03-187.35 225.91-204.62 369.09z" fill="#ffffff" opacity="1" data-original="#000000"></path><path d="M3700.68 2889.61c4.28 12 7.63 24.75 9.93 38.1 2.24 12.97 3.41 26.04 3.41 39.02 0 63.22-25.71 120.56-67.25 162.12v.25c-41.54 41.54-98.96 67.25-162.36 67.25-63.22 0-120.56-25.71-162.12-67.25l-.25-.25c-41.54-41.56-67.25-98.9-67.25-162.12 0-12.98 1.17-26.05 3.41-39.02 2.3-13.35 5.65-26.1 9.93-38.1l15.04-42.17h402.46zm-143.59 149.81c16.8-16.85 27.78-39.62 29.65-64.98h-204.67c1.87 25.36 12.85 48.13 29.65 64.98 18.55 18.48 44.24 29.93 72.69 29.93 28.33 0 54-11.49 72.56-30.05zM3241.07 1988.22h486.67c27.01 0 51.51 10.99 69.23 28.71s28.71 42.22 28.71 69.23v276.24l-83.1-27.08c-41.11-13.39-83.41-23.64-126.44-30.39-41.71-6.54-85.73-9.97-131.73-9.97-46.01 0-90.03 3.43-131.74 9.97-43.03 6.75-85.33 17-126.43 30.39l-83.1 27.08v-276.24c0-26.82 11-51.24 28.71-68.98v-.25c17.72-17.72 42.23-28.71 69.22-28.71zm457.61 127h-428.54v76.73c20.67-4.65 41.74-8.68 63.19-12.04 50-7.84 100.54-11.95 151.08-11.95 50.53 0 101.07 4.11 151.07 11.95 21.45 3.36 42.53 7.39 63.2 12.05z" fill="#ffffff" opacity="1" data-original="#000000"></path><path d="M3547.91 2051.72c0 35.07-28.43 63.5-63.5 63.5s-63.5-28.43-63.5-63.5V571.74c0-35.07 28.43-63.5 63.5-63.5s63.5 28.43 63.5 63.5zM3484.41 2974.43h-850.52v-63.5c0-206.83 96.54-393.6 252.59-528.33 153.6-132.6 365.07-214.64 597.93-214.64s444.32 82.03 597.92 214.64c156.05 134.73 252.59 321.5 252.59 528.33v63.5zm-719.71-127h1439.41c-17.27-143.18-92.24-272.06-204.62-369.09-131.23-113.3-313.3-183.38-515.08-183.38s-383.86 70.09-515.09 183.38c-112.38 97.03-187.35 225.91-204.62 369.09z" fill="#ffffff" opacity="1" data-original="#000000"></path></g></g></svg>