<svg xmlns="http://www.w3.org/2000/svg" version="1.1" xmlns:xlink="http://www.w3.org/1999/xlink" width="512" height="512" x="0" y="0" viewBox="0 0 512 512" style="enable-background:new 0 0 512 512" xml:space="preserve"><g><path d="M250.956 382.77c-4.086-.848-23.251 2.453-41.515-7.39a7.501 7.501 0 1 0-7.119 13.207c1.556.838 3.116 1.6 4.679 2.293-15.304 6.722-27.668 18.856-34.891 36.791-6.853-16.778-18.598-29.534-34.906-36.811 16.632-7.422 28.203-20.402 34.906-36.808 1.436 3.544 2.746 6.006 2.796 6.108a7.502 7.502 0 0 0 13.363-6.821c-.022-.1-9.103-16.674-8.03-38.733.613-4.135-2.285-8.245-6.704-9.058-4.022-.792-8.478 1.759-9.514 6.277-.536 2.341 3.344 42.848-26.052 61.642-19.137 12.208-40.863 8.414-44.911 9.332-8.557 1.948-8.55 14.176 0 16.123 3.998.901 26.15-2.883 45.293 9.578 28.428 18.522 25.291 57.953 25.481 59.719 0 9.249 13.217 11.331 16.134 2.307.987-3.073-3.164-42.18 24.905-61.4 18.493-12.672 41.411-9.616 45.399-10.065 9.126-1.025 9.942-14.333.686-16.291zM503.965 236.428c-13.713-1.523-111.464 12.208-154.185-77.488-22.458-47.18-16.698-89.951-17.922-95.317-1.102-4.824-5.663-7.714-10.024-7.157-4.973.563-8.272 4.681-8.272 8.827v19.464c-3.389 66.912-33.839 123.872-97.781 143.921-36.925 11.583-68.981 6.58-74.966 7.889-9.598 2.178-9.67 15.963.102 18.134 8.368 1.766 71.326-8.434 120.217 32.169a7.503 7.503 0 0 0 9.586-11.542c-16.776-13.932-36.883-23.888-59.891-29.672 60.573-15.257 97.752-58.495 111.983-119.061 14.112 60.195 50.984 103.816 112.208 118.997-60.613 15.167-98.306 58.369-112.295 118.769-5.208-22.138-13.896-43.327-26.956-61.831a7.502 7.502 0 0 0-12.258 8.65c4.604 6.522 8.747 13.629 12.319 21.124 21.189 44.516 17.445 89.806 17.752 94.175.791 11.16 18.999 11.722 18.429-2.077-1.029-24.872.9-109.129 68.956-149.111 45.923-26.952 97.009-19.079 103.828-20.613 10.278-2.333 9.166-17.128-.83-18.25zM164.308 113.042c-5.079-1.053-45.121 6.036-63.009-30.052-8.409-16.93-7.825-35.754-7.71-38.114.602-4.085-2.234-8.238-6.711-9.055-3.997-.791-8.474 1.745-9.509 6.29-.534 2.33 3.343 42.837-26.05 61.631-18.466 11.78-40.018 8.737-44.08 9.19-9.127 1.038-9.865 14.207-.832 16.264 4.362.982 26.045-2.952 45.293 9.578 20.514 13.364 24.777 37.908 25.482 51.479.097 7.756-.246 8.658.363 10.548 1.121 3.469 4.29 5.798 7.884 5.798 4.126.002 7.469-3.049 8.131-6.788.458-2.564-1.544-22.068 7.956-40.945a7.502 7.502 0 0 0-13.401-6.745 77.787 77.787 0 0 0-2.642 5.856c-6.849-16.789-18.595-29.555-34.917-36.841 16.631-7.425 28.201-20.402 34.904-36.809 6.699 16.527 18.176 29.448 34.878 36.835a68.655 68.655 0 0 0-4.899 2.398 7.5 7.5 0 0 0-3.028 10.167 7.502 7.502 0 0 0 10.167 3.029c17.704-9.578 37.046-6.973 41.043-7.418 9.175-1.052 9.871-14.353.687-16.296z" fill="#ffffff" opacity="1" data-original="#000000"></path></g></svg>