<svg xmlns="http://www.w3.org/2000/svg" version="1.1" xmlns:xlink="http://www.w3.org/1999/xlink" width="512" height="512" x="0" y="0" viewBox="0 0 74 74" style="enable-background:new 0 0 512 512" xml:space="preserve"><g><path d="M54 72H37a1 1 0 0 1-1-1V3a1 1 0 0 1 1.64-.768l12 10a1 1 0 0 1 .356.682l5 58A1 1 0 0 1 54 72zm-16-2h14.91l-4.87-56.5L38 5.135zM59.159 44.79a1 1 0 0 1-.995-.914l-.25-2.9a1 1 0 0 1 1.992-.172l.25 2.9a1 1 0 0 1-.91 1.082.844.844 0 0 1-.087.004z" fill="#ffffff" opacity="1" data-original="#000000"></path><path d="M61.5 72H54a1 1 0 0 1 0-2h6.41l-.786-9.155a1 1 0 0 1 .911-1.081.987.987 0 0 1 1.081.91l.88 10.241A1 1 0 0 1 61.5 72zM60.019 54.76a1 1 0 0 1-.995-.913l-.26-2.97a1 1 0 1 1 1.992-.174l.26 2.969a1 1 0 0 1-.909 1.084.864.864 0 0 1-.088.004zM58.3 34.89a1 1 0 0 1-1-.914l-.584-6.825-7.76-6.473a1 1 0 0 1 1.282-1.536l8.08 6.74a1 1 0 0 1 .356.682l.619 7.241a1 1 0 0 1-.911 1.082zM37 72H20a1 1 0 0 1-1-1.086l5-58a1 1 0 0 1 .356-.682l12-10A1 1 0 0 1 38 3v68a1 1 0 0 1-1 1zm-15.91-2H36V5.135L25.96 13.5z" fill="#ffffff" opacity="1" data-original="#000000"></path><path d="M20 72h-9.5a1 1 0 0 1-.988-1.154l5-32a1 1 0 0 1 .388-.646l7.76-5.82a1 1 0 1 1 1.2 1.6l-7.435 5.576L11.668 70H20a1 1 0 0 1 0 2z" fill="#ffffff" opacity="1" data-original="#000000"></path><path d="M20.391 67.52a1 1 0 0 1-.539-1.843l16.61-10.6a1 1 0 0 1 1.076 1.686l-16.61 10.6a1 1 0 0 1-.537.157zM21.371 56.16a1 1 0 0 1-.538-1.843l15.629-9.97a1 1 0 0 1 1.076 1.686L21.908 56a1 1 0 0 1-.537.16zM22.341 44.81a1 1 0 0 1-.539-1.843l14.66-9.35a1 1 0 0 1 1.076 1.683l-14.661 9.35a.993.993 0 0 1-.536.16zM23.321 33.47a1 1 0 0 1-.539-1.843l13.68-8.73a1 1 0 1 1 1.076 1.686l-13.68 8.73a1 1 0 0 1-.537.157zM24.3 22.12a1 1 0 0 1-.539-1.843l12.7-8.1a1 1 0 0 1 1.076 1.686l-12.7 8.1a.993.993 0 0 1-.537.157z" fill="#ffffff" opacity="1" data-original="#000000"></path></g></svg>